<?xml version="1.0" ?><svg id="Layer_1" width="20" height="20" style="enable-background:new 0 0 64 64;" version="1.1" viewBox="0 0 64 64" xml:space="preserve" xmlns="http://www.w3.org/2000/svg" xmlns:xlink="http://www.w3.org/1999/xlink"><g><path d="M64.02222,9.55713V4.98175H35.76099V4.41284c0-2.07709-1.68384-3.76093-3.76099-3.76093s-3.76099,1.68384-3.76099,3.76093   v0.56891H-0.02222v4.57538h2.35986v32.58948h-2.35986v4.68652h19.98059l-8,16.51062h4.58331l8-16.51062h14.93085l7.98578,16.51178   l4.58331,0.00317l-7.9873-16.51495h19.9679v-4.68652h-2.35449V9.55713H64.02222z M4.33765,42.14661V9.60168h55.33008v32.54492   H4.33765z"/><path d="M17.51624,17.68451c-5.47791,0-9.92377,4.4458-9.92377,9.92377c0,5.47784,4.44586,9.92377,9.92377,9.92377   c5.48926,0,9.92377-4.44592,9.92377-9.92377h-9.92377V17.68451z"/><path d="M20.9187,14.28204v9.92377h9.92377C30.84247,18.72791,26.4079,14.28204,20.9187,14.28204z"/><rect height="2" width="11.88477" x="42.16382" y="16.68176"/><rect height="2" width="4.75" x="39.88745" y="22.16516"/><rect height="2" width="4.4375" x="46.02319" y="27.64856"/><rect height="2" width="3.84375" x="52.12671" y="33.13196"/><rect height="2" width="4.75" x="46.53296" y="22.16516"/><rect height="2" width="4.4375" x="39.86694" y="27.64856"/><rect height="2" width="3.84375" x="52.12671" y="27.64856"/><rect height="2" width="3.5" x="52.47046" y="22.16516"/><rect height="2" width="3.84375" x="45.93921" y="33.13196"/><rect height="2" width="3.84375" x="39.75171" y="33.13196"/></g></svg>